<svg width="32" height="32" viewBox="0 0 32 32" fill="none" xmlns="http://www.w3.org/2000/svg">
<path d="M16.3151 9.31468C17.3546 9.31468 18.6577 8.61192 19.4336 7.67489C20.1364 6.82571 20.6488 5.63979 20.6488 4.45387C20.6488 4.29282 20.6342 4.13177 20.6049 4C19.4483 4.04392 18.0574 4.77597 17.2228 5.75692C16.564 6.50361 15.9637 7.67489 15.9637 8.87545C15.9637 9.05115 15.993 9.22684 16.0076 9.2854C16.0808 9.30004 16.198 9.31468 16.3151 9.31468ZM12.6548 27.0303C14.075 27.0303 14.7046 26.0786 16.4761 26.0786C18.277 26.0786 18.6723 27.001 20.2535 27.001C21.8055 27.001 22.845 25.5662 23.8259 24.1607C24.924 22.5502 25.3779 20.9689 25.4072 20.8957C25.3047 20.8664 22.3325 19.6512 22.3325 16.2399C22.3325 13.2824 24.6751 11.9501 24.8069 11.8476C23.2549 9.62215 20.8977 9.56358 20.2535 9.56358C18.5112 9.56358 17.0911 10.6177 16.198 10.6177C15.2317 10.6177 13.9579 9.62215 12.4499 9.62215C9.58023 9.62215 6.66667 11.994 6.66667 16.4741C6.66667 19.2559 7.75011 22.1988 9.08244 24.1021C10.2244 25.7126 11.22 27.0303 12.6548 27.0303Z" fill="white"/>
</svg>
