<svg width="32" height="32" viewBox="0 0 32 32" fill="none" xmlns="http://www.w3.org/2000/svg">
<circle cx="16" cy="16" r="16" fill="#FEE500"/>
<path d="M16.0463 7.72208C11.0683 7.72208 7.05386 10.9336 7.05386 14.8325C7.05386 17.3632 8.72388 19.5792 11.2289 20.8445L10.3811 24.0112C10.3651 24.0586 10.3626 24.1095 10.374 24.1583C10.3853 24.2071 10.41 24.2518 10.4453 24.2873C10.4967 24.3327 10.5629 24.3578 10.6316 24.3579C10.6884 24.3534 10.7424 24.3309 10.7857 24.2937L14.4341 21.8337C14.9726 21.908 15.5155 21.9466 16.0591 21.9493C21.0306 21.9493 25.0515 18.7377 25.0515 14.8325C25.0515 10.9272 21.0178 7.72208 16.0463 7.72208Z" fill="#392020"/>
<path d="M10.2009 13.7084H9.21819C9.09638 13.7119 8.97608 13.6807 8.87134 13.6184C8.82483 13.5893 8.78485 13.5509 8.7539 13.5055C8.72295 13.4602 8.7017 13.409 8.69149 13.3551C8.68837 13.3209 8.68837 13.2865 8.69149 13.2524C8.68844 13.1884 8.70085 13.1246 8.72769 13.0665C8.75452 13.0083 8.79499 12.9575 8.84564 12.9183C8.95762 12.8372 9.09278 12.7944 9.23103 12.7963H12.1921C12.3149 12.792 12.436 12.8256 12.5389 12.8926C12.5866 12.9205 12.6274 12.9586 12.6585 13.0041C12.6896 13.0497 12.7102 13.1015 12.7188 13.156C12.7219 13.188 12.7219 13.2203 12.7188 13.2524C12.7218 13.3173 12.7094 13.3819 12.6826 13.4411C12.6558 13.5003 12.6154 13.5522 12.5646 13.5927C12.4554 13.6737 12.3215 13.7146 12.1857 13.7084H11.2351V17.087C11.2389 17.1589 11.2278 17.2309 11.2023 17.2983C11.1769 17.3658 11.1377 17.4273 11.0873 17.4788C11.039 17.528 10.9808 17.5666 10.9167 17.5921C10.8525 17.6175 10.7837 17.6292 10.7148 17.6265C10.5941 17.6299 10.4761 17.5914 10.3808 17.5173C10.29 17.445 10.2285 17.3423 10.2074 17.2283C10.201 17.1814 10.201 17.1338 10.2074 17.087L10.2009 13.7084Z" fill="#FEE500"/>
<path d="M13.0023 13.0468C13.0306 12.9411 13.0969 12.8496 13.1886 12.7899C13.2863 12.7345 13.3976 12.7078 13.5097 12.7128H13.7538C13.8728 12.7085 13.9907 12.7374 14.0942 12.7963C14.204 12.8701 14.2819 12.9824 14.3126 13.111L15.5973 16.7401C15.6306 16.8348 15.6584 16.9313 15.6808 17.0292C15.683 17.0698 15.683 17.1105 15.6808 17.1512C15.6829 17.2138 15.6714 17.2761 15.647 17.3338C15.6226 17.3915 15.5859 17.4432 15.5394 17.4852C15.4944 17.5313 15.4404 17.5677 15.3807 17.592C15.3211 17.6163 15.257 17.628 15.1926 17.6265C15.0935 17.6364 14.994 17.6126 14.9101 17.559C14.8262 17.5054 14.7628 17.4251 14.7301 17.3311L14.4604 16.541H12.7711L12.5013 17.3311C12.4694 17.427 12.4052 17.5088 12.3197 17.5627C12.2342 17.6166 12.1327 17.6391 12.0324 17.6265C11.9238 17.6293 11.8174 17.5954 11.7305 17.5301C11.6459 17.4628 11.5888 17.3669 11.5699 17.2604C11.5665 17.2241 11.5665 17.1875 11.5699 17.1512C11.5589 17.0874 11.5589 17.0223 11.5699 16.9585C11.5699 16.8879 11.6149 16.8108 11.6406 16.7401L13.0023 13.0468ZM13.6446 13.8883L13.0344 15.8152H14.2484L13.6446 13.8883Z" fill="#FEE500"/>
<path d="M15.8279 13.2524C15.8213 13.1083 15.8721 12.9674 15.9692 12.8606C16.0185 12.8109 16.0777 12.772 16.143 12.7466C16.2083 12.7211 16.2781 12.7096 16.3481 12.7128C16.4685 12.7114 16.5859 12.7499 16.6821 12.8221C16.7713 12.8974 16.8306 13.0022 16.8491 13.1175C16.8555 13.1622 16.8555 13.2077 16.8491 13.2524V16.631H18.6155C18.7379 16.6294 18.8583 16.6628 18.9624 16.7273C19.0091 16.7561 19.0493 16.7945 19.0803 16.8399C19.1113 16.8853 19.1324 16.9366 19.1422 16.9907C19.1422 16.9907 19.1422 17.0549 19.1422 17.087C19.1453 17.151 19.1328 17.2147 19.106 17.2729C19.0792 17.331 19.0387 17.3819 18.988 17.4211C18.8761 17.5022 18.7409 17.5449 18.6027 17.5431H16.4316C16.2934 17.552 16.1559 17.516 16.0398 17.4403C15.936 17.3627 15.8668 17.2474 15.8471 17.1192C15.8424 17.0486 15.8424 16.9778 15.8471 16.9072L15.8279 13.2524Z" fill="#FEE500"/>
<path d="M19.2579 13.2525C19.2541 13.1088 19.3045 12.9689 19.3992 12.8607C19.4955 12.7732 19.619 12.7215 19.7489 12.7145C19.8787 12.7075 20.0071 12.7455 20.1122 12.8221C20.2034 12.8968 20.2649 13.0015 20.2856 13.1175C20.2888 13.1624 20.2888 13.2076 20.2856 13.2525V14.8261L21.9107 12.9505C21.9733 12.8865 22.0398 12.8265 22.1098 12.7707C22.1758 12.7315 22.2514 12.7114 22.3282 12.7129C22.4405 12.7123 22.5502 12.7459 22.6429 12.8092C22.6866 12.8386 22.7239 12.8766 22.7526 12.9207C22.7813 12.9649 22.8008 13.0143 22.8099 13.0662C22.8125 13.0789 22.8125 13.092 22.8099 13.1048C22.8068 13.1196 22.8068 13.1349 22.8099 13.1497C22.8097 13.2173 22.792 13.2837 22.7585 13.3424C22.7245 13.4046 22.6835 13.4627 22.6365 13.5158L21.5703 14.6848L22.8549 16.676V16.7402C22.9216 16.8322 22.9736 16.9341 23.009 17.0421V17.0742C23.0165 17.1486 23.0057 17.2238 22.9778 17.2931C22.9498 17.3625 22.9054 17.424 22.8485 17.4724C22.7413 17.5534 22.6102 17.5964 22.4759 17.5945C22.3867 17.5982 22.2981 17.5782 22.219 17.5367C22.1334 17.4793 22.063 17.4022 22.0135 17.3119L20.8188 15.3849L20.2471 15.9823V17.0549C20.2509 17.1987 20.2005 17.3385 20.1058 17.4467C20.055 17.4963 19.9946 17.5351 19.9284 17.5605C19.8621 17.5859 19.7913 17.5975 19.7204 17.5945C19.6019 17.597 19.4861 17.5584 19.3928 17.4853C19.3021 17.413 19.2405 17.3104 19.2194 17.1963C19.213 17.1494 19.213 17.1018 19.2194 17.0549L19.2579 13.2525Z" fill="#FEE500"/>
</svg>
