<svg width="28" height="28" viewBox="0 0 28 28" fill="none" xmlns="http://www.w3.org/2000/svg">
<path d="M24.0079 13.2343L5.53445 2.88743C5.37884 2.80146 5.20074 2.76493 5.02385 2.7827C4.84697 2.80048 4.67969 2.87171 4.5443 2.98691C4.4089 3.10212 4.31181 3.25583 4.26595 3.42759C4.22008 3.59935 4.22763 3.781 4.28757 3.94836L7.7657 13.7046C7.84232 13.894 7.84232 14.1058 7.7657 14.2952L4.28757 24.0515C4.22763 24.2189 4.22008 24.4005 4.26595 24.5723C4.31181 24.744 4.4089 24.8977 4.5443 25.0129C4.67969 25.1281 4.84697 25.1994 5.02385 25.2171C5.20074 25.2349 5.37884 25.1984 5.53445 25.1124L24.0079 14.7656C24.1446 14.6899 24.2586 14.579 24.338 14.4443C24.4174 14.3097 24.4593 14.1562 24.4593 13.9999C24.4593 13.8436 24.4174 13.6902 24.338 13.5555C24.2586 13.4209 24.1446 13.31 24.0079 13.2343V13.2343Z" stroke="#0058A2" stroke-width="1.5" stroke-linecap="round" stroke-linejoin="round"/>
<path d="M7.875 14H14.875" stroke="#0058A2" stroke-width="1.5" stroke-linecap="round" stroke-linejoin="round"/>
</svg>
