<svg width="24" height="24" viewBox="0 0 24 24" fill="none" xmlns="http://www.w3.org/2000/svg">
<path d="M11.4656 6.69369L13.3219 4.83744C14.1078 4.12112 15.1395 3.73516 16.2026 3.75978C17.2657 3.78439 18.2784 4.21767 19.0303 4.9696C19.7822 5.72152 20.2155 6.73426 20.2401 7.79735C20.2648 8.86045 19.8788 9.89215 19.1625 10.6781L16.5094 13.3218C16.127 13.7056 15.6726 14.0102 15.1723 14.2179C14.6719 14.4257 14.1355 14.5327 13.5937 14.5327C13.052 14.5327 12.5155 14.4257 12.0152 14.2179C11.5149 14.0102 11.0605 13.7056 10.6781 13.3218" stroke="#2D3436" stroke-width="2" stroke-linecap="round" stroke-linejoin="round"/>
<path d="M12.5344 17.3063L10.6781 19.1625C9.89221 19.8789 8.86051 20.2648 7.79741 20.2402C6.73432 20.2156 5.72158 19.7823 4.96966 19.0304C4.21774 18.2785 3.78445 17.2657 3.75984 16.2026C3.73522 15.1395 4.12118 14.1078 4.8375 13.3219L7.49063 10.6782C7.873 10.2944 8.32738 9.98984 8.82772 9.78204C9.32805 9.57425 9.86449 9.46729 10.4063 9.46729C10.948 9.46729 11.4845 9.57425 11.9848 9.78204C12.4851 9.98984 12.9395 10.2944 13.3219 10.6782" stroke="#2D3436" stroke-width="2" stroke-linecap="round" stroke-linejoin="round"/>
</svg>
