<svg width="24" height="24" viewBox="0 0 24 24" fill="none" xmlns="http://www.w3.org/2000/svg">
<circle cx="12" cy="12" r="12" fill="#FEE500"/>
<path d="M12.0347 5.7915C8.30125 5.7915 5.29041 8.20016 5.29041 11.1243C5.29041 13.0223 6.54292 14.6843 8.42169 15.6333L7.7858 18.0083C7.77381 18.0439 7.77196 18.0821 7.78047 18.1187C7.78898 18.1553 7.8075 18.1888 7.83397 18.2154C7.87256 18.2495 7.92222 18.2683 7.97367 18.2684C8.01634 18.265 8.05681 18.2481 8.08929 18.2202L10.8255 16.3752C11.2295 16.431 11.6366 16.4599 12.0443 16.4619C15.773 16.4619 18.7886 14.0532 18.7886 11.1243C18.7886 8.19534 15.7633 5.7915 12.0347 5.7915Z" fill="#392020"/>
<path d="M7.65068 10.2813H6.91362C6.82227 10.2839 6.73205 10.2605 6.65349 10.2138C6.61861 10.192 6.58862 10.1631 6.56541 10.1292C6.5422 10.0952 6.52626 10.0567 6.5186 10.0163C6.51626 9.99067 6.51626 9.96491 6.5186 9.93927C6.51631 9.8913 6.52562 9.84345 6.54575 9.79984C6.56588 9.75624 6.59622 9.71814 6.63422 9.68876C6.7182 9.62794 6.81957 9.59581 6.92326 9.5972H9.14406C9.23614 9.59396 9.32698 9.61921 9.4042 9.66947C9.4399 9.69036 9.47052 9.71894 9.49384 9.75309C9.51717 9.78725 9.53262 9.82615 9.53908 9.867C9.54143 9.89103 9.54143 9.91524 9.53908 9.93927C9.54135 9.98794 9.53206 10.0364 9.51196 10.0808C9.49187 10.1252 9.46154 10.1642 9.42347 10.1945C9.34153 10.2553 9.24114 10.286 9.13924 10.2813H8.42627V12.8152C8.42917 12.8692 8.42081 12.9232 8.40174 12.9738C8.38267 13.0243 8.35329 13.0704 8.31547 13.1091C8.27921 13.146 8.23562 13.175 8.1875 13.194C8.13938 13.2131 8.08779 13.2219 8.03607 13.2199C7.94559 13.2224 7.85704 13.1935 7.78556 13.138C7.71752 13.0838 7.67133 13.0068 7.6555 12.9212C7.65074 12.886 7.65074 12.8504 7.6555 12.8152L7.65068 10.2813Z" fill="#FEE500"/>
<path d="M9.75174 9.78514C9.77293 9.70586 9.82269 9.63722 9.89144 9.59243C9.96471 9.55091 10.0482 9.53087 10.1323 9.53462H10.3154C10.4046 9.53143 10.493 9.55311 10.5707 9.59725C10.653 9.65259 10.7114 9.73685 10.7345 9.8333L11.698 12.5551C11.7229 12.6261 11.7438 12.6985 11.7606 12.7719C11.7622 12.8024 11.7622 12.8329 11.7606 12.8634C11.7622 12.9104 11.7536 12.9571 11.7353 13.0004C11.717 13.0437 11.6894 13.0824 11.6546 13.1139C11.6208 13.1485 11.5803 13.1758 11.5356 13.194C11.4908 13.2123 11.4428 13.2211 11.3945 13.2199C11.3202 13.2273 11.2455 13.2095 11.1826 13.1693C11.1197 13.1291 11.0721 13.0689 11.0476 12.9983L10.8453 12.4058H9.57832L9.37599 12.9983C9.35206 13.0703 9.30393 13.1316 9.2398 13.172C9.17568 13.2125 9.09952 13.2294 9.02432 13.2199C8.94286 13.222 8.86307 13.1966 8.7979 13.1476C8.73442 13.0972 8.69158 13.0252 8.67747 12.9454C8.67491 12.9181 8.67491 12.8907 8.67747 12.8634C8.6692 12.8156 8.6692 12.7668 8.67747 12.7189C8.67747 12.666 8.71119 12.6081 8.73046 12.5551L9.75174 9.78514ZM10.2335 10.4162L9.77583 11.8614H10.6863L10.2335 10.4162Z" fill="#FEE500"/>
<path d="M11.8709 9.93928C11.866 9.83117 11.9041 9.72553 11.9769 9.64543C12.0139 9.60811 12.0583 9.57895 12.1072 9.55987C12.1562 9.54078 12.2086 9.53215 12.2611 9.53458C12.3514 9.53353 12.4394 9.56234 12.5116 9.6165C12.5785 9.67301 12.623 9.75161 12.6369 9.83808C12.6416 9.87163 12.6416 9.90573 12.6369 9.93928V12.4732H13.9616C14.0535 12.472 14.1437 12.497 14.2218 12.5454C14.2568 12.5671 14.287 12.5958 14.3102 12.6299C14.3335 12.6639 14.3493 12.7024 14.3567 12.743C14.3567 12.743 14.3567 12.7911 14.3567 12.8152C14.3589 12.8632 14.3496 12.911 14.3295 12.9546C14.3094 12.9982 14.279 13.0364 14.241 13.0657C14.1571 13.1266 14.0557 13.1586 13.952 13.1572H12.3237C12.22 13.1639 12.1169 13.1369 12.0299 13.0802C11.952 13.022 11.9001 12.9355 11.8854 12.8393C11.8818 12.7864 11.8818 12.7333 11.8854 12.6803L11.8709 9.93928Z" fill="#FEE500"/>
<path d="M14.4435 9.93943C14.4406 9.83163 14.4784 9.72672 14.5495 9.64558C14.6217 9.57997 14.7143 9.54123 14.8117 9.53596C14.9091 9.5307 15.0053 9.5592 15.0842 9.61664C15.1526 9.67265 15.1987 9.75122 15.2143 9.83822C15.2166 9.8719 15.2166 9.90575 15.2143 9.93943V11.1197L16.4331 9.71297C16.48 9.66498 16.5299 9.61997 16.5824 9.57813C16.6319 9.54866 16.6886 9.5336 16.7462 9.53473C16.8304 9.53427 16.9127 9.55948 16.9822 9.607C17.015 9.62906 17.043 9.65751 17.0645 9.69062C17.086 9.72373 17.1006 9.76082 17.1075 9.79971C17.1094 9.80924 17.1094 9.8191 17.1075 9.82864C17.1051 9.83976 17.1051 9.85121 17.1075 9.86233C17.1073 9.91302 17.094 9.96283 17.0689 10.0069C17.0434 10.0535 17.0127 10.0971 16.9774 10.1369L16.1777 11.0137L17.1412 12.5071V12.5552C17.1912 12.6243 17.2302 12.7007 17.2568 12.7817V12.8057C17.2624 12.8615 17.2543 12.9179 17.2334 12.9699C17.2124 13.0219 17.1791 13.0681 17.1364 13.1044C17.056 13.1651 16.9577 13.1974 16.857 13.196C16.7901 13.1987 16.7236 13.1837 16.6643 13.1526C16.6001 13.1095 16.5473 13.0517 16.5101 12.984L15.6141 11.5388L15.1854 11.9868V12.7913C15.1882 12.8991 15.1504 13.004 15.0794 13.0851C15.0413 13.1223 14.996 13.1514 14.9463 13.1704C14.8966 13.1895 14.8435 13.1982 14.7903 13.196C14.7014 13.1978 14.6146 13.1689 14.5446 13.114C14.4766 13.0598 14.4304 12.9829 14.4146 12.8973C14.4098 12.8621 14.4098 12.8264 14.4146 12.7913L14.4435 9.93943Z" fill="#FEE500"/>
</svg>
