<svg width="28" height="28" viewBox="0 0 28 28" fill="none" xmlns="http://www.w3.org/2000/svg">
<path d="M8.75 19.25L2.625 25.375" stroke="#0058A2" stroke-width="1.5" stroke-linecap="round" stroke-linejoin="round"/>
<path d="M25.375 2.625L19.25 8.75" stroke="#0058A2" stroke-width="1.5" stroke-linecap="round" stroke-linejoin="round"/>
<path d="M14.3347 7.54213L7.54427 14.3326C6.51914 15.3577 6.51914 17.0197 7.54427 18.0449L9.95727 20.4579C10.9824 21.483 12.6445 21.483 13.6696 20.4579L20.46 13.6674C21.4851 12.6423 21.4851 10.9803 20.46 9.95513L18.047 7.54213C17.0219 6.51701 15.3598 6.51701 14.3347 7.54213Z" stroke="#0058A2" stroke-width="1.5" stroke-linecap="round" stroke-linejoin="round"/>
<path d="M10.0625 10.0625L17.9375 17.9375" stroke="#0058A2" stroke-width="1.5" stroke-linecap="round" stroke-linejoin="round"/>
<path d="M24.5 17.5L21.875 16.625" stroke="#0058A2" stroke-width="1.5" stroke-linecap="round" stroke-linejoin="round"/>
<path d="M6.125 11.375L3.5 10.5" stroke="#0058A2" stroke-width="1.5" stroke-linecap="round" stroke-linejoin="round"/>
<path d="M10.5 3.5L11.375 6.125" stroke="#0058A2" stroke-width="1.5" stroke-linecap="round" stroke-linejoin="round"/>
<path d="M16.625 21.875L17.5 24.5" stroke="#0058A2" stroke-width="1.5" stroke-linecap="round" stroke-linejoin="round"/>
</svg>
