<svg width="29" height="28" viewBox="0 0 29 28" fill="none" xmlns="http://www.w3.org/2000/svg">
<path d="M17.425 22.75V17.5C17.425 17.2679 17.3328 17.0454 17.1687 16.8813C17.0046 16.7172 16.7821 16.625 16.55 16.625H13.05C12.8179 16.625 12.5954 16.7172 12.4313 16.8813C12.2672 17.0454 12.175 17.2679 12.175 17.5V22.75C12.175 22.9821 12.0828 23.2046 11.9187 23.3687C11.7546 23.5328 11.5321 23.625 11.3 23.625H6.04999C5.81792 23.625 5.59536 23.5328 5.43127 23.3687C5.26718 23.2046 5.17499 22.9821 5.17499 22.75V12.6328C5.17695 12.5117 5.20312 12.3922 5.25195 12.2814C5.30079 12.1706 5.37131 12.0706 5.45936 11.9875L14.2094 4.03593C14.3707 3.88836 14.5814 3.80652 14.8 3.80652C15.0186 3.80652 15.2293 3.88836 15.3906 4.03593L24.1406 11.9875C24.2287 12.0706 24.2992 12.1706 24.348 12.2814C24.3969 12.3922 24.423 12.5117 24.425 12.6328V22.75C24.425 22.9821 24.3328 23.2046 24.1687 23.3687C24.0046 23.5328 23.7821 23.625 23.55 23.625H18.3C18.0679 23.625 17.8454 23.5328 17.6813 23.3687C17.5172 23.2046 17.425 22.9821 17.425 22.75Z" stroke="#2D3436" stroke-width="1.5" stroke-linecap="round" stroke-linejoin="round"/>
</svg>
