<svg width="29" height="28" viewBox="0 0 29 28" fill="none" xmlns="http://www.w3.org/2000/svg">
<path d="M24.7312 11.3421L15.9812 3.39058C15.6586 3.09544 15.2372 2.93176 14.8 2.93176C14.3627 2.93176 13.9413 3.09544 13.6187 3.39058L4.86873 11.3421C4.68958 11.506 4.54649 11.7054 4.44858 11.9276C4.35066 12.1498 4.30005 12.39 4.29998 12.6328V22.7062C4.29286 23.1474 4.44862 23.5758 4.73748 23.9093C4.90142 24.0958 5.10337 24.2449 5.32976 24.3468C5.55615 24.4487 5.80172 24.5009 6.04998 24.5H11.3C11.532 24.5 11.7546 24.4078 11.9187 24.2437C12.0828 24.0796 12.175 23.857 12.175 23.625V18.375C12.175 18.1429 12.2672 17.9203 12.4313 17.7562C12.5954 17.5921 12.8179 17.5 13.05 17.5H16.55C16.782 17.5 17.0046 17.5921 17.1687 17.7562C17.3328 17.9203 17.425 18.1429 17.425 18.375V23.625C17.425 23.857 17.5172 24.0796 17.6813 24.2437C17.8454 24.4078 18.0679 24.5 18.3 24.5H23.55C23.8402 24.5025 24.1263 24.431 24.3812 24.2921C24.6586 24.1411 24.8902 23.9182 25.0519 23.6469C25.2135 23.3756 25.2992 23.0658 25.3 22.75V12.6328C25.2999 12.39 25.2493 12.1498 25.1514 11.9276C25.0535 11.7054 24.9104 11.506 24.7312 11.3421V11.3421Z" fill="#0058A2"/>
</svg>
