<svg width="33" height="32" viewBox="0 0 33 32" fill="none" xmlns="http://www.w3.org/2000/svg">
<path d="M19.8 26V20C19.8 19.7348 19.6946 19.4805 19.5071 19.2929C19.3196 19.1054 19.0652 19 18.8 19H14.8C14.5348 19 14.2804 19.1054 14.0929 19.2929C13.9053 19.4805 13.8 19.7348 13.8 20V26C13.8 26.2652 13.6946 26.5196 13.5071 26.7071C13.3196 26.8947 13.0652 27 12.8 27H6.79999C6.53477 27 6.28042 26.8947 6.09288 26.7071C5.90534 26.5196 5.79999 26.2652 5.79999 26V14.4375C5.80223 14.2991 5.83213 14.1626 5.88795 14.0359C5.94377 13.9093 6.02436 13.7951 6.12499 13.7L16.125 4.61252C16.3093 4.44387 16.5501 4.35034 16.8 4.35034C17.0498 4.35034 17.2906 4.44387 17.475 4.61252L27.475 13.7C27.5756 13.7951 27.6562 13.9093 27.712 14.0359C27.7678 14.1626 27.7977 14.2991 27.8 14.4375V26C27.8 26.2652 27.6946 26.5196 27.5071 26.7071C27.3196 26.8947 27.0652 27 26.8 27H20.8C20.5348 27 20.2804 26.8947 20.0929 26.7071C19.9053 26.5196 19.8 26.2652 19.8 26Z" stroke="#2D3436" stroke-width="1.5" stroke-linecap="round" stroke-linejoin="round"/>
</svg>
