<svg width="24" height="24" viewBox="0 0 24 24" fill="none" xmlns="http://www.w3.org/2000/svg">
<path d="M4.25626 16.5938C3.13959 14.7098 2.74899 12.483 3.1578 10.3314C3.5666 8.17983 4.74669 6.25146 6.47652 4.90832C8.20636 3.56517 10.367 2.89961 12.5527 3.0366C14.7385 3.17358 16.7991 4.10368 18.3477 5.65229C19.8963 7.20089 20.8264 9.26151 20.9634 11.4473C21.1004 13.6331 20.4348 15.7937 19.0917 17.5235C17.7486 19.2533 15.8202 20.4334 13.6686 20.8422C11.5171 21.251 9.29025 20.8604 7.40626 19.7438V19.7438L4.29376 20.625C4.16624 20.6623 4.03103 20.6646 3.90231 20.6317C3.77359 20.5988 3.6561 20.5318 3.56215 20.4379C3.4682 20.3439 3.40126 20.2264 3.36833 20.0977C3.33541 19.969 3.33771 19.8338 3.37501 19.7063L4.25626 16.5938Z" stroke="black" stroke-width="1.5" stroke-linecap="round" stroke-linejoin="round"/>
<path d="M12 12.9375C12.5178 12.9375 12.9375 12.5178 12.9375 12C12.9375 11.4822 12.5178 11.0625 12 11.0625C11.4822 11.0625 11.0625 11.4822 11.0625 12C11.0625 12.5178 11.4822 12.9375 12 12.9375Z" fill="black"/>
<path d="M16.5 12.9375C17.0178 12.9375 17.4375 12.5178 17.4375 12C17.4375 11.4822 17.0178 11.0625 16.5 11.0625C15.9822 11.0625 15.5625 11.4822 15.5625 12C15.5625 12.5178 15.9822 12.9375 16.5 12.9375Z" fill="black"/>
<path d="M7.5 12.9375C8.01777 12.9375 8.4375 12.5178 8.4375 12C8.4375 11.4822 8.01777 11.0625 7.5 11.0625C6.98223 11.0625 6.5625 11.4822 6.5625 12C6.5625 12.5178 6.98223 12.9375 7.5 12.9375Z" fill="black"/>
</svg>
