<svg width="29" height="28" viewBox="0 0 29 28" fill="none" xmlns="http://www.w3.org/2000/svg">
<path d="M14.6 2.625C12.6245 2.62485 10.683 3.1392 8.96662 4.11741C7.25028 5.09563 5.8183 6.50397 4.81165 8.20379C3.80501 9.9036 3.25841 11.8363 3.22568 13.8115C3.19295 15.7868 3.67521 17.7365 4.62498 19.4688L3.6953 22.7391C3.60786 23.04 3.60231 23.3588 3.67922 23.6626C3.75612 23.9664 3.9127 24.2441 4.1328 24.4672C4.35288 24.6883 4.62872 24.8458 4.93105 24.9228C5.23338 24.9998 5.55092 24.9936 5.84998 24.9047L9.13124 23.975C10.6519 24.8084 12.3429 25.2832 14.0751 25.363C15.8073 25.4427 17.5348 25.1254 19.1256 24.4353C20.7164 23.7451 22.1284 22.7004 23.2536 21.381C24.3787 20.0616 25.1874 18.5024 25.6177 16.8226C26.0479 15.1427 26.0885 13.3868 25.7362 11.6889C25.3838 9.99103 24.648 8.39617 23.5849 7.02624C22.5218 5.6563 21.1596 4.54756 19.6023 3.78474C18.0451 3.02193 16.334 2.62524 14.6 2.625V2.625ZM9.34999 15.3125C9.0904 15.3125 8.83664 15.2355 8.6208 15.0913C8.40496 14.9471 8.23673 14.7421 8.13739 14.5023C8.03805 14.2624 8.01206 13.9985 8.0627 13.7439C8.11335 13.4893 8.23835 13.2555 8.42191 13.0719C8.60546 12.8884 8.83933 12.7634 9.09393 12.7127C9.34853 12.6621 9.61243 12.6881 9.85226 12.7874C10.0921 12.8867 10.2971 13.055 10.4413 13.2708C10.5855 13.4867 10.6625 13.7404 10.6625 14C10.6625 14.3481 10.5242 14.6819 10.2781 14.9281C10.0319 15.1742 9.69808 15.3125 9.34999 15.3125ZM14.6 15.3125C14.3404 15.3125 14.0866 15.2355 13.8708 15.0913C13.655 14.9471 13.4867 14.7421 13.3874 14.5023C13.2881 14.2624 13.2621 13.9985 13.3127 13.7439C13.3633 13.4893 13.4884 13.2555 13.6719 13.0719C13.8555 12.8884 14.0893 12.7634 14.3439 12.7127C14.5985 12.6621 14.8624 12.6881 15.1023 12.7874C15.3421 12.8867 15.5471 13.055 15.6913 13.2708C15.8355 13.4867 15.9125 13.7404 15.9125 14C15.9125 14.3481 15.7742 14.6819 15.5281 14.9281C15.2819 15.1742 14.9481 15.3125 14.6 15.3125ZM19.85 15.3125C19.5904 15.3125 19.3366 15.2355 19.1208 15.0913C18.905 14.9471 18.7367 14.7421 18.6374 14.5023C18.5381 14.2624 18.5121 13.9985 18.5627 13.7439C18.6133 13.4893 18.7384 13.2555 18.9219 13.0719C19.1055 12.8884 19.3393 12.7634 19.5939 12.7127C19.8485 12.6621 20.1124 12.6881 20.3523 12.7874C20.5921 12.8867 20.7971 13.055 20.9413 13.2708C21.0855 13.4867 21.1625 13.7404 21.1625 14C21.1625 14.3481 21.0242 14.6819 20.7781 14.9281C20.5319 15.1742 20.1981 15.3125 19.85 15.3125Z" fill="#0058A2"/>
</svg>
