<svg width="33" height="32" viewBox="0 0 33 32" fill="none" xmlns="http://www.w3.org/2000/svg">
<path d="M19.6 10V25.4625C19.5984 25.6287 19.6389 25.7926 19.7175 25.939C19.7962 26.0854 19.9105 26.2095 20.05 26.3L21.425 27.2125C21.5582 27.3014 21.7108 27.3571 21.87 27.3747C22.0292 27.3924 22.1903 27.3716 22.3397 27.314C22.4892 27.2564 22.6226 27.1638 22.7288 27.0439C22.835 26.924 22.9108 26.7803 22.95 26.625L24.6 20" stroke="#2D3436" stroke-width="1.5" stroke-linecap="round" stroke-linejoin="round"/>
<path d="M24.6 20C25.9261 20 27.1978 19.4733 28.1355 18.5356C29.0732 17.5979 29.6 16.3261 29.6 15C29.6 13.674 29.0732 12.4022 28.1355 11.4645C27.1978 10.5268 25.9261 10 24.6 10H19.6C19.6 10 12.7875 10 6.23748 4.51253C6.09179 4.39198 5.91491 4.3152 5.72735 4.29111C5.53979 4.26702 5.34924 4.2966 5.17782 4.37642C5.00639 4.45625 4.86111 4.58304 4.75883 4.74209C4.65656 4.90115 4.60147 5.08594 4.59998 5.27504V24.725C4.60147 24.9141 4.65656 25.0989 4.75883 25.258C4.86111 25.417 5.00639 25.5438 5.17782 25.6236C5.34924 25.7035 5.53979 25.7331 5.72735 25.709C5.91491 25.6849 6.09179 25.6081 6.23748 25.4875C12.7875 20 19.6 20 19.6 20H24.6Z" stroke="#2D3436" stroke-width="1.5" stroke-linecap="round" stroke-linejoin="round"/>
</svg>
