<svg width="29" height="28" viewBox="0 0 29 28" fill="none" xmlns="http://www.w3.org/2000/svg">
<path d="M5.56559 19.3593C4.26281 17.1613 3.80711 14.5634 4.28405 12.0533C4.76099 9.54309 6.13776 7.29332 8.1559 5.72632C10.174 4.15931 12.6948 3.38283 15.2448 3.54264C17.7949 3.70246 20.1989 4.78757 22.0056 6.59428C23.8124 8.40099 24.8975 10.805 25.0573 13.3551C25.2171 15.9052 24.4406 18.4259 22.8736 20.444C21.3066 22.4622 19.0568 23.8389 16.5467 24.3159C14.0365 24.7928 11.4386 24.3371 9.24059 23.0343V23.0343L5.60934 24.0625C5.46057 24.106 5.30283 24.1087 5.15265 24.0703C5.00248 24.0318 4.86541 23.9537 4.7558 23.8441C4.64619 23.7345 4.56809 23.5974 4.52968 23.4473C4.49126 23.2971 4.49395 23.1394 4.53747 22.9906L5.56559 19.3593Z" stroke="black" stroke-width="1.5" stroke-linecap="round" stroke-linejoin="round"/>
<path d="M14.4062 14.7062C14.9033 14.7062 15.3062 14.3033 15.3062 13.8062C15.3062 13.3092 14.9033 12.9062 14.4062 12.9062C13.9092 12.9062 13.5062 13.3092 13.5062 13.8062C13.5062 14.3033 13.9092 14.7062 14.4062 14.7062Z" fill="black"/>
<path d="M19.6562 14.7062C20.1533 14.7062 20.5562 14.3033 20.5562 13.8062C20.5562 13.3092 20.1533 12.9062 19.6562 12.9062C19.1592 12.9062 18.7562 13.3092 18.7562 13.8062C18.7562 14.3033 19.1592 14.7062 19.6562 14.7062Z" fill="black"/>
<path d="M9.15623 14.7062C9.65328 14.7062 10.0562 14.3033 10.0562 13.8062C10.0562 13.3092 9.65328 12.9062 9.15623 12.9062C8.65917 12.9062 8.25623 13.3092 8.25623 13.8062C8.25623 14.3033 8.65917 14.7062 9.15623 14.7062Z" fill="black"/>
</svg>
