<svg width="29" height="28" viewBox="0 0 29 28" fill="none" xmlns="http://www.w3.org/2000/svg">
<path d="M17.225 8.75V22.2797C17.2236 22.4251 17.259 22.5685 17.3278 22.6966C17.3967 22.8247 17.4967 22.9334 17.6187 23.0125L18.8218 23.8109C18.9384 23.8888 19.0719 23.9374 19.2112 23.9529C19.3505 23.9683 19.4915 23.9501 19.6222 23.8997C19.753 23.8493 19.8698 23.7683 19.9627 23.6634C20.0556 23.5585 20.122 23.4328 20.1562 23.2969L21.6 17.5" stroke="#2D3436" stroke-width="1.5" stroke-linecap="round" stroke-linejoin="round"/>
<path d="M21.6 17.5C22.7603 17.5 23.8731 17.0391 24.6936 16.2186C25.514 15.3981 25.975 14.2853 25.975 13.125C25.975 11.9647 25.514 10.8519 24.6936 10.0314C23.8731 9.21094 22.7603 8.75 21.6 8.75H17.225C17.225 8.75 11.264 8.75 5.53279 3.94844C5.40531 3.84295 5.25054 3.77577 5.08643 3.75469C4.92231 3.73361 4.75558 3.75949 4.60559 3.82934C4.45559 3.89919 4.32847 4.01013 4.23898 4.1493C4.14948 4.28847 4.10129 4.45017 4.09998 4.61563V21.6344C4.10129 21.7998 4.14948 21.9615 4.23898 22.1007C4.32847 22.2399 4.45559 22.3508 4.60559 22.4207C4.75558 22.4905 4.92231 22.5164 5.08643 22.4953C5.25054 22.4742 5.40531 22.407 5.53279 22.3016C11.264 17.5 17.225 17.5 17.225 17.5H21.6Z" stroke="#2D3436" stroke-width="1.5" stroke-linecap="round" stroke-linejoin="round"/>
</svg>
