<svg width="29" height="28" viewBox="0 0 29 28" fill="none" xmlns="http://www.w3.org/2000/svg">
<path d="M25.5641 23.1875C23.9314 20.375 21.318 18.264 18.225 17.2594C19.7076 16.3778 20.8597 15.0338 21.5043 13.4339C22.149 11.8341 22.2505 10.0668 21.7934 8.40358C21.3362 6.74039 20.3457 5.27329 18.9739 4.22766C17.602 3.18204 15.9249 2.61572 14.2 2.61572C12.4751 2.61572 10.7979 3.18204 9.42614 4.22766C8.05433 5.27329 7.06376 6.74039 6.60661 8.40358C6.14946 10.0668 6.25102 11.8341 6.89568 13.4339C7.54033 15.0338 8.69244 16.3778 10.175 17.2594C7.08198 18.264 4.46861 20.375 2.83593 23.1875C2.75577 23.3194 2.71338 23.4707 2.71338 23.625C2.71338 23.7793 2.75577 23.9307 2.83593 24.0625C2.91072 24.1966 3.0203 24.308 3.15313 24.385C3.28596 24.462 3.4371 24.5018 3.59062 24.5H24.8094C24.9629 24.5018 25.114 24.462 25.2469 24.385C25.3797 24.308 25.4893 24.1966 25.5641 24.0625C25.6442 23.9307 25.6866 23.7793 25.6866 23.625C25.6866 23.4707 25.6442 23.3194 25.5641 23.1875V23.1875Z" fill="#0058A2"/>
</svg>
