<svg width="40" height="40" viewBox="0 0 40 40" fill="none" xmlns="http://www.w3.org/2000/svg">
<path d="M21.25 33.75H13.75C11.7609 33.75 9.85322 32.9598 8.4467 31.5533C7.04018 30.1468 6.25 28.2391 6.25 26.25V13.75C6.25 11.7609 7.04018 9.85322 8.4467 8.4467C9.85322 7.04018 11.7609 6.25 13.75 6.25H26.25C28.2391 6.25 30.1468 7.04018 31.5533 8.4467C32.9598 9.85322 33.75 11.7609 33.75 13.75V21.25C32.5 25 25 32.5 21.25 33.75Z" stroke="white" stroke-width="2" stroke-linecap="round" stroke-linejoin="round"/>
<path d="M21.25 33.75V28.75C21.25 26.7609 22.0402 24.8532 23.4467 23.4467C24.8532 22.0402 26.7609 21.25 28.75 21.25H33.75" stroke="white" stroke-width="2" stroke-linecap="round" stroke-linejoin="round"/>
</svg>
