<svg width="28" height="28" viewBox="0 0 28 28" fill="none" xmlns="http://www.w3.org/2000/svg">
<path d="M24.0078 13.2344L5.53432 2.88755C5.37872 2.80158 5.20061 2.76505 5.02373 2.78283C4.84684 2.8006 4.67957 2.87183 4.54417 2.98703C4.40878 3.10224 4.31169 3.25595 4.26582 3.42771C4.21996 3.59947 4.22751 3.78112 4.28745 3.94848L7.76557 13.7047C7.8422 13.8942 7.8422 14.1059 7.76557 14.2954L4.28745 24.0516C4.22751 24.219 4.21996 24.4006 4.26582 24.5724C4.31169 24.7441 4.40878 24.8979 4.54417 25.0131C4.67957 25.1283 4.84684 25.1995 5.02373 25.2173C5.20061 25.235 5.37872 25.1985 5.53432 25.1125L24.0078 14.7657C24.1445 14.69 24.2585 14.5791 24.3379 14.4444C24.4173 14.3098 24.4592 14.1563 24.4592 14C24.4592 13.8437 24.4173 13.6903 24.3379 13.5557C24.2585 13.421 24.1445 13.3101 24.0078 13.2344V13.2344Z" stroke="#2D3436" stroke-linecap="round" stroke-linejoin="round"/>
<path d="M7.875 14H14.875" stroke="#2D3436" stroke-linecap="round" stroke-linejoin="round"/>
</svg>
