<svg width="14" height="13" viewBox="0 0 14 13" fill="none" xmlns="http://www.w3.org/2000/svg">
<path d="M5.98438 8.125C7.66712 8.125 9.03125 6.76087 9.03125 5.07812C9.03125 3.39538 7.66712 2.03125 5.98438 2.03125C4.30163 2.03125 2.9375 3.39538 2.9375 5.07812C2.9375 6.76087 4.30163 8.125 5.98438 8.125Z" stroke="black" stroke-linecap="round" stroke-linejoin="round"/>
<path d="M1.62732 10.1563C2.16116 9.52008 2.82787 9.00846 3.5806 8.65744C4.33333 8.30642 5.1538 8.12451 5.98435 8.12451C6.8149 8.12451 7.63537 8.30642 8.3881 8.65744C9.14083 9.00846 9.80754 9.52008 10.3414 10.1563" stroke="black" stroke-linecap="round" stroke-linejoin="round"/>
<path d="M10.6562 6.5H13.0937" stroke="black" stroke-linecap="round" stroke-linejoin="round"/>
<path d="M11.4688 5.28125L10.25 6.5L11.4688 7.71875" stroke="black" stroke-linecap="round" stroke-linejoin="round"/>
</svg>
