<svg width="16" height="16" viewBox="0 0 16 16" fill="none" xmlns="http://www.w3.org/2000/svg">
<path d="M6.15382 9.8461C8.5329 9.8461 10.4615 7.91748 10.4615 5.53841C10.4615 3.15933 8.5329 1.23071 6.15382 1.23071C3.77475 1.23071 1.84613 3.15933 1.84613 5.53841C1.84613 7.91748 3.77475 9.8461 6.15382 9.8461Z" stroke="black" stroke-linecap="round" stroke-linejoin="round"/>
<path d="M0.615356 13.5385C1.29395 12.3823 2.14145 11.4525 3.09828 10.8146C4.05511 10.1768 5.09806 9.84619 6.15382 9.84619C7.20958 9.84619 8.25252 10.1768 9.20936 10.8146C10.1662 11.4525 11.0137 12.3823 11.6923 13.5385" stroke="black" stroke-linecap="round" stroke-linejoin="round"/>
<path d="M11.6923 8H12.9231H14.7692" stroke="black" stroke-linecap="round" stroke-linejoin="round"/>
<path d="M12.9231 4.9231L15.3846 8.00002L12.9231 11.0769" stroke="black" stroke-linecap="round" stroke-linejoin="round"/>
</svg>
