<svg width="14" height="13" viewBox="0 0 14 13" fill="none" xmlns="http://www.w3.org/2000/svg">
<path d="M2.125 5.28125H4.5625V10.5625H2.125C2.01726 10.5625 1.91392 10.5197 1.83774 10.4435C1.76155 10.3673 1.71875 10.264 1.71875 10.1562V5.6875C1.71875 5.57976 1.76155 5.47642 1.83774 5.40024C1.91392 5.32405 2.01726 5.28125 2.125 5.28125V5.28125Z" stroke="black" stroke-linecap="round" stroke-linejoin="round"/>
<path d="M4.5625 5.28125L6.59375 1.21875C7.02473 1.21875 7.43805 1.38995 7.7428 1.6947C8.04754 1.99945 8.21875 2.41277 8.21875 2.84375V4.0625H11.3621C11.4773 4.06222 11.5912 4.08659 11.6963 4.13398C11.8013 4.18138 11.8949 4.25069 11.9709 4.33727C12.0469 4.42386 12.1035 4.5257 12.1369 4.63597C12.1703 4.74623 12.1797 4.86236 12.1645 4.97656L11.5551 9.85156C11.5304 10.0473 11.4354 10.2273 11.2878 10.3581C11.1402 10.4889 10.95 10.5616 10.7527 10.5625H4.5625" stroke="black" stroke-linecap="round" stroke-linejoin="round"/>
</svg>
